# Blender v2.91.2 OBJ File: ''
# www.blender.org
mtllib gun_barrel.mtl
o Cylinder
v 0.330000 0.000000 -0.500000
v 2.330000 -0.000000 -0.434779
v 0.330000 -0.353553 -0.353553
v 2.330000 -0.307435 -0.307435
v 0.330000 -0.500000 0.000000
v 2.330000 -0.434779 0.000000
v 0.330000 -0.353553 0.353553
v 2.330000 -0.307435 0.307435
v 0.330000 0.000000 0.500000
v 2.330000 -0.000000 0.434779
v 0.330000 0.353553 0.353553
v 2.330000 0.307435 0.307435
v 0.330000 0.500000 -0.000000
v 2.330000 0.434778 -0.000000
v 0.330000 0.353553 -0.353553
v 2.330000 0.307435 -0.307435
v 2.409986 -0.000000 -0.434779
v 2.409986 -0.307435 -0.307435
v 2.409986 -0.434779 0.000000
v 2.409986 -0.307435 0.307435
v 2.409986 -0.000000 0.434779
v 2.409986 0.307435 0.307435
v 2.409986 0.434778 -0.000000
v 2.409986 0.307435 -0.307435
v 2.535164 -0.000000 -0.399726
v 2.499800 -0.000000 -0.492137
v 2.535164 -0.282649 -0.282649
v 2.499800 -0.347993 -0.347993
v 2.535164 -0.399726 0.000000
v 2.499800 -0.492137 0.000000
v 2.535164 -0.282649 0.282649
v 2.499800 -0.347993 0.347993
v 2.535164 -0.000000 0.399726
v 2.499800 -0.000000 0.492137
v 2.535164 0.282649 0.282649
v 2.499800 0.347993 0.347993
v 2.535164 0.399726 0.000000
v 2.499800 0.492137 0.000000
v 2.535164 0.282649 -0.282649
v 2.499800 0.347993 -0.347993
v 1.585710 -0.000000 -0.376387
v 1.585710 -0.266146 -0.266146
v 1.585710 -0.376387 0.000000
v 1.585710 -0.266146 0.266146
v 1.585710 -0.000000 0.376387
v 1.585710 0.266146 0.266146
v 1.585710 0.376387 -0.000000
v 1.585710 0.266146 -0.266146
vt 0.780627 0.457480
vt 0.681333 0.000000
vt 0.787555 0.000000
vt 0.568183 0.540992
vt 0.468888 0.000000
vt 0.575111 0.000000
vt 0.993072 0.457480
vt 0.893778 0.000000
vt 1.000000 0.000000
vt 0.461960 0.540992
vt 0.362666 0.000000
vt 0.468888 0.000000
vt 0.099294 0.953176
vt 0.000000 0.495695
vt 0.106222 0.495695
vt 0.674405 0.540992
vt 0.575111 0.000000
vt 0.681333 0.000000
vt 0.369594 0.562617
vt 0.369594 0.540992
vt 0.886850 0.457480
vt 0.787555 0.000000
vt 0.893778 0.000000
vt 0.355738 0.540992
vt 0.256443 0.000000
vt 0.362666 0.000000
vt 0.000000 0.176644
vt 0.075111 0.000000
vt 0.256443 0.073168
vt 0.263372 0.562617
vt 0.263372 0.540992
vt 0.794483 0.476108
vt 0.794483 0.457480
vt 0.006928 0.971803
vt 0.006928 0.953176
vt 0.900705 0.476108
vt 0.900705 0.457480
vt 0.582039 0.562617
vt 0.582039 0.540992
vt 0.475816 0.562617
vt 0.475816 0.540992
vt 0.574276 0.586646
vt 0.469724 0.586646
vt 0.106222 0.970631
vt 0.188663 0.752485
vt 0.191142 0.970631
vt 0.993072 0.476108
vt 0.894613 0.504305
vt 0.468053 0.586646
vt 0.363501 0.586646
vt 0.099294 0.971803
vt 0.000835 1.000000
vt 0.674405 0.562617
vt 0.575946 0.586646
vt 0.886850 0.476108
vt 0.788390 0.504305
vt 0.780627 0.476108
vt 0.682168 0.504305
vt 0.688261 0.476108
vt 0.688261 0.457480
vt 0.023698 0.414115
vt 0.000000 0.321830
vt 0.023698 0.331392
vt 0.083745 0.472610
vt 0.000000 0.423678
vt 0.168665 0.472610
vt 0.073929 0.495695
vt 0.228712 0.414115
vt 0.178481 0.495695
vt 0.252411 0.321830
vt 0.252411 0.423678
vt 0.168665 0.272897
vt 0.228712 0.331392
vt 0.083746 0.272897
vt 0.178481 0.249812
vt 0.073929 0.249812
vt 0.361831 0.586646
vt 0.257279 0.586646
vt 0.392946 0.774698
vt 0.256444 0.719619
vt 0.312985 0.586646
vt 0.766253 0.761095
vt 0.848693 0.504305
vt 0.851172 0.761095
vt 0.936092 0.940597
vt 0.853651 0.722451
vt 0.933613 0.722451
vt 0.766253 0.761095
vt 0.683812 0.504305
vt 0.763774 0.504305
vt 0.851172 0.722451
vt 0.933613 0.504305
vt 0.936092 0.722451
vt 0.191142 0.752485
vt 0.108702 0.495695
vt 0.188663 0.495695
vt 0.534407 0.804792
vt 0.616848 0.586646
vt 0.619327 0.804792
vt 0.449488 0.843436
vt 0.531928 0.586646
vt 0.534407 0.843436
vt 0.461960 0.562617
vt 0.000000 0.073168
vt 0.181333 0.000000
vt 0.256443 0.176644
vt 0.181333 0.249812
vt 0.075111 0.249812
vt 0.355738 0.562617
vt 0.568183 0.562617
vt 0.108702 0.752485
vt 0.999165 0.504305
vt 0.105387 1.000000
vt 0.680498 0.586646
vt 0.892942 0.504305
vt 0.786720 0.504305
vt 0.392946 0.586646
vt 0.449488 0.641725
vt 0.449488 0.719619
vt 0.312985 0.774698
vt 0.256444 0.641725
vt 0.768732 0.504305
vt 0.851172 0.940597
vt 0.681333 0.761095
vt 0.853651 0.504305
vt 0.106222 0.752485
vt 0.536886 0.586646
vt 0.451967 0.586646
vn 0.0301 -0.3825 -0.9235
vn 0.0301 -0.9235 -0.3825
vn 0.0301 -0.9235 0.3825
vn 0.0301 -0.3825 0.9235
vn 0.0301 0.3825 0.9235
vn 0.0301 0.9235 0.3825
vn -0.0000 -0.3827 0.9239
vn 0.0301 0.9235 -0.3825
vn 0.0301 0.3825 -0.9235
vn -1.0000 0.0000 0.0000
vn 0.0000 0.3827 -0.9239
vn 0.0000 0.9239 -0.3827
vn -0.0000 0.3827 0.9239
vn -0.0000 -0.9239 0.3827
vn 0.0000 0.9239 0.3827
vn -0.0000 -0.9239 -0.3827
vn -0.5082 -0.7957 -0.3296
vn 0.0227 0.3826 0.9236
vn -0.5082 -0.7957 0.3296
vn -0.5082 -0.3296 0.7957
vn -0.5082 0.3296 0.7957
vn -0.5082 0.7957 0.3296
vn -0.5082 0.7957 -0.3296
vn -0.5082 -0.3296 -0.7957
vn -0.0000 -0.3827 -0.9239
vn 0.9239 -0.1464 -0.3536
vn 0.9239 -0.3536 -0.1464
vn 0.9239 -0.3536 0.1464
vn 0.9239 -0.1464 0.3536
vn 0.9239 0.1464 0.3536
vn 0.9239 0.3536 0.1464
vn 0.9239 0.3536 -0.1464
vn 0.9239 0.1464 -0.3536
vn -0.5082 0.3296 -0.7957
vn 1.0000 0.0000 0.0000
vn 0.0227 0.3826 -0.9236
vn 0.0227 -0.9236 0.3826
vn 0.0227 0.9236 0.3826
vn 0.0227 -0.3826 -0.9236
vn 0.0227 -0.3826 0.9236
vn 0.0227 0.9236 -0.3826
vn 0.0227 -0.9236 -0.3826
vn 0.9239 -0.3535 -0.1464
usemtl Material.001
s off
f 2/1/1 3/2/1 1/3/1
f 4/4/2 5/5/2 3/6/2
f 6/7/3 7/8/3 5/9/3
f 8/10/4 9/11/4 7/12/4
f 10/13/5 11/14/5 9/15/5
f 12/16/6 13/17/6 11/18/6
f 8/10/7 21/19/7 10/20/7
f 14/21/8 15/22/8 13/23/8
f 16/24/9 1/25/9 15/26/9
f 15/27/10 3/28/10 7/29/10
f 16/24/11 17/30/11 2/31/11
f 14/21/12 24/32/12 16/33/12
f 10/13/13 22/34/13 12/35/13
f 6/7/14 20/36/14 8/37/14
f 12/16/15 23/38/15 14/39/15
f 4/4/16 19/40/16 6/41/16
f 19/40/17 28/42/17 30/43/17
f 25/44/18 42/45/18 27/46/18
f 19/47/19 32/48/19 20/36/19
f 21/19/20 32/49/20 34/50/20
f 21/51/21 36/52/21 22/34/21
f 22/53/22 38/54/22 23/38/22
f 23/55/23 40/56/23 24/32/23
f 17/57/24 28/58/24 18/59/24
f 2/1/25 18/59/25 4/60/25
f 27/61/26 26/62/26 25/63/26
f 29/64/27 28/65/27 27/61/27
f 31/66/28 30/67/28 29/64/28
f 33/68/29 32/69/29 31/66/29
f 33/68/30 36/70/30 34/71/30
f 37/72/31 36/70/31 35/73/31
f 39/74/32 38/75/32 37/72/32
f 25/63/33 40/76/33 39/74/33
f 17/30/34 40/77/34 26/78/34
f 47/79/35 45/80/35 43/81/35
f 31/82/36 45/83/36 33/84/36
f 39/85/37 47/86/37 48/87/37
f 29/88/38 42/89/38 43/90/38
f 33/91/39 46/92/39 35/93/39
f 25/94/40 48/95/40 41/96/40
f 29/97/41 44/98/41 31/99/41
f 35/100/42 47/101/42 37/102/42
f 2/1/1 4/60/1 3/2/1
f 4/4/2 6/41/2 5/5/2
f 6/7/3 8/37/3 7/8/3
f 8/10/4 10/20/4 9/11/4
f 10/13/5 12/35/5 11/14/5
f 12/16/6 14/39/6 13/17/6
f 8/10/7 20/103/7 21/19/7
f 14/21/8 16/33/8 15/22/8
f 16/24/9 2/31/9 1/25/9
f 15/27/10 1/104/10 3/28/10
f 3/28/10 5/105/10 7/29/10
f 7/29/10 9/106/10 11/107/10
f 11/107/10 13/108/10 7/29/10
f 13/108/10 15/27/10 7/29/10
f 16/24/11 24/109/11 17/30/11
f 14/21/12 23/55/12 24/32/12
f 10/13/13 21/51/13 22/34/13
f 6/7/14 19/47/14 20/36/14
f 12/16/15 22/53/15 23/38/15
f 4/4/16 18/110/16 19/40/16
f 19/40/17 18/110/17 28/42/17
f 25/44/18 41/111/18 42/45/18
f 19/47/19 30/112/19 32/48/19
f 21/19/20 20/103/20 32/49/20
f 21/51/21 34/113/21 36/52/21
f 22/53/22 36/114/22 38/54/22
f 23/55/23 38/115/23 40/56/23
f 17/57/24 26/116/24 28/58/24
f 2/1/25 17/57/25 18/59/25
f 27/61/26 28/65/26 26/62/26
f 29/64/43 30/67/43 28/65/43
f 31/66/28 32/69/28 30/67/28
f 33/68/29 34/71/29 32/69/29
f 33/68/30 35/73/30 36/70/30
f 37/72/31 38/75/31 36/70/31
f 39/74/32 40/76/32 38/75/32
f 25/63/33 26/62/33 40/76/33
f 17/30/34 24/109/34 40/77/34
f 43/81/35 42/117/35 41/118/35
f 41/118/35 48/119/35 47/79/35
f 47/79/35 46/120/35 45/80/35
f 45/80/35 44/121/35 43/81/35
f 43/81/35 41/118/35 47/79/35
f 31/82/36 44/122/36 45/83/36
f 39/85/37 37/123/37 47/86/37
f 29/88/38 27/124/38 42/89/38
f 33/91/39 45/125/39 46/92/39
f 25/94/40 39/126/40 48/95/40
f 29/97/41 43/127/41 44/98/41
f 35/100/42 46/128/42 47/101/42
